<svg width="111" height="95" fill="none" xmlns="http://www.w3.org/2000/svg"><path d="M11.2 40.5c0 24.9 11.25 35.25 26.25 35.25 34.5 0 24.9-54.15 51.45-54.15 9.3 0 17.55 6.6 17.55 19.95 0 19.65-17.7 25.35-28.2 29.55l.15.75 28.35-1.95c-2.25-9.75.75-17.1.75-28.5 0-22.05-11.1-31.5-25.2-31.5-33.6 0-23.4 54-51.3 54-10.05 0-18.75-7.05-18.75-22.65 0-22.35 18-26.7 31.05-31.65l-.15-.9-27.9 1.65C13.45 18.3 11.2 29.4 11.2 40.5z" fill="#FF4838"/><path d="M34.207 43.9922c0-.8594-.2734-1.5755-.8203-2.1484-.5469-.586-1.2565-1.0417-2.1289-1.3672-.8594-.3386-1.8164-.6381-2.8711-.8985-1.0547-.2734-2.1094-.6054-3.164-.9961-1.0547-.3906-2.0183-.8593-2.8907-1.4062-.8593-.5469-1.5625-1.3216-2.1093-2.3242-.5469-1.0157-.8204-2.2331-.8204-3.6524 0-2.1614.8269-3.9648 2.4805-5.4101 1.6537-1.4584 3.8932-2.1875 6.7188-2.1875 1.0416 0 2.0377.1302 2.9882.3906.9636.2474 1.7579.5469 2.3829.8984.638.3386 1.1914.6836 1.6601 1.0352.4818.3385.8333.6315 1.0547.8789l.3125.3906-2.793 2.8125c-.0521-.0521-.1302-.1367-.2343-.2539-.0912-.1302-.3125-.3255-.6641-.5859-.3385-.2735-.7096-.5144-1.1133-.7227-.3906-.2213-.9114-.4167-1.5625-.5859-.638-.1693-1.3151-.2539-2.0312-.2539-1.4454 0-2.6107.358-3.4961 1.0742-.8724.7161-1.3086 1.556-1.3086 2.5195 0 .8594.2734 1.582.8203 2.168.5469.5859 1.25 1.0482 2.1094 1.3867.8724.3255 1.8359.625 2.8906.8984 1.0547.2605 2.1094.586 3.164.9766 1.0547.3776 2.0118.8399 2.8711 1.3867.8724.5469 1.5821 1.3282 2.1289 2.3438.5469 1.0156.8204 2.2265.8204 3.6328 0 2.4739-.8855 4.4922-2.6563 6.0547s-4.2187 2.3437-7.3437 2.3437c-1.2761 0-2.4935-.1497-3.6524-.4492-1.1458-.3125-2.0898-.6771-2.832-1.0937-.7422-.4297-1.3867-.8594-1.9336-1.2891-.5469-.4297-.944-.7878-1.1914-1.0742l-.3906-.4883 2.7929-2.793c.0521.0781.1367.1953.2539.3516.1302.1432.4102.4036.8399.7812.4427.3646.9179.6901 1.4258.9766.5078.2734 1.1783.5273 2.0117.7617.8463.2214 1.7383.332 2.6758.332 1.7317 0 3.0989-.4231 4.1015-1.2695 1.0026-.8463 1.5039-1.8945 1.5039-3.1445zm7.9868-13.5938v-4.0039h3.5937v6.4063h4.0039v3.5937h-4.0039v9.961c0 .7161.2279 1.3021.6836 1.7578s1.0286.6836 1.7187.6836c.2995 0 .612-.0326.9375-.0977.3386-.0651.599-.1367.7813-.2148l.293-.0782V52c-.7943.2604-1.7318.3906-2.8125.3906-3.737 0-5.599-1.9987-5.586-5.9961v-10h-3.6133v-3.5937h2.0118c1.3281 0 1.9922-.8008 1.9922-2.4024zm21.6 16.543c1.1848-1.237 1.7773-2.7474 1.7773-4.5312 0-1.7969-.5925-3.3138-1.7773-4.5508-1.1849-1.237-2.5912-1.8555-4.2188-1.8555-1.6276 0-3.0404.6185-4.2383 1.8555-1.1849 1.237-1.7773 2.7539-1.7773 4.5508 0 1.7838.5924 3.2942 1.7773 4.5312 1.1979 1.237 2.6107 1.8555 4.2383 1.8555 1.6276 0 3.0339-.6185 4.2188-1.8555zm-11.25 2.4805c-1.9792-1.9922-2.9688-4.3295-2.9688-7.0117 0-2.6954.9896-5.0391 2.9688-7.0313 1.9921-1.9922 4.3359-2.9883 7.0312-2.9883 2.6953 0 5.0326.9961 7.0117 2.9883 1.9922 1.9922 2.9883 4.3359 2.9883 7.0313 0 2.6822-.9961 5.0195-2.9883 7.0117-1.9791 1.9791-4.3164 2.9687-7.0117 2.9687-2.6953 0-5.0391-.9896-7.0312-2.9687zm28.8265-13.2227c-.5338-.1302-1.1328-.1953-1.7969-.1953-1.5234 0-2.7408.4948-3.6523 1.4844-.8984.9765-1.3477 2.3502-1.3477 4.1211V52h-4.0039V32.8008h4.0039v1.9922l.2539-.2539c.1172-.1172.3646-.306.7422-.5664.3776-.2735.7748-.5144 1.1914-.7227.4297-.2214.9701-.4167 1.6211-.5859.6641-.1823 1.3282-.2735 1.9922-.2735h.9961v3.8086zm7.793 17.793L89.9641 52l-7.8125-19.1992h4.1992l5.6055 14.0039 5.6054-14.0039h4.1993l-8.6133 21.1914c-.9896 2.3698-1.9727 4.0299-2.9493 4.9805-.9635.9505-2.1744 1.4257-3.6328 1.4257-.5338 0-1.0351-.0325-1.5039-.0976-.4687-.0651-.8138-.1367-1.0351-.2149l-.2735-.0781v-3.6133c.6641.2604 1.3347.3972 2.0117.4102 1.5235-.013 2.6563-.9505 3.3985-2.8125z" fill="#000"/></svg>