<svg width="17" height="17" viewBox="0 0 17 17" fill="none" xmlns="http://www.w3.org/2000/svg">
<path d="M5.36389 14.8749H3.42056C3.07695 14.8749 2.74742 14.7406 2.50446 14.5015C2.2615 14.2624 2.125 13.9381 2.125 13.5999V9.13746C2.125 8.79931 2.2615 8.47501 2.50446 8.2359C2.74742 7.99679 3.07695 7.86246 3.42056 7.86246H5.36389M9.89834 6.58747V4.03749C9.89834 3.53026 9.6936 3.04382 9.32915 2.68515C8.96471 2.32649 8.47041 2.125 7.95501 2.125L5.36389 7.86246V14.8749H12.6708C12.9833 14.8784 13.2865 14.7706 13.5245 14.5715C13.7626 14.3723 13.9195 14.0952 13.9664 13.7912L14.8603 8.05371C14.8885 7.87098 14.876 7.6844 14.8236 7.5069C14.7713 7.3294 14.6803 7.16523 14.5571 7.02576C14.4338 6.88629 14.2813 6.77485 14.1099 6.69917C13.9386 6.62349 13.7526 6.58538 13.5648 6.58747H9.89834Z" stroke="#2D303A" stroke-linecap="round" stroke-linejoin="round"/>
</svg>
