<svg width="994" height="942" viewBox="0 0 994 942" fill="none" xmlns="http://www.w3.org/2000/svg">
<g clip-path="url(#clip0)">
<path d="M994 -165L6.10352e-05 -165L6.10352e-05 497L994 497L994 -165Z" fill="white"/>
<path d="M165.667 -165L6.10352e-05 -165L6.10352e-05 0.499985L165.667 0.499985L165.667 -165Z" fill="white"/>
<path d="M165.667 0.499985L6.10352e-05 0.499985C6.10352e-05 -90.856 74.2187 -165 165.667 -165L165.667 0.499985Z" fill="white"/>
<path d="M165.667 0.499687L48.1097 0.499687C48.1097 -64.3763 100.725 -116.939 165.667 -116.939L165.667 0.499687Z" fill="white"/>
<path d="M165.667 0.499512L116.099 0.499512C116.099 -26.9073 138.232 -49.0181 165.667 -49.0181L165.667 0.499512Z" fill="#242629"/>
<path d="M662.667 0.5L497 0.5L497 166L662.667 166L662.667 0.5Z" fill="white"/>
<path d="M622.509 52.5331L540.338 52.5331V77.1595L622.509 77.1595V52.5331Z" fill="#7AE0F7"/>
<path d="M622.509 94.6364L540.338 94.6364V119.263L622.509 119.263V94.6364Z" fill="#7AE0F7"/>
<path d="M331.333 0.5L165.667 0.5L165.667 166L331.333 166L331.333 0.5Z" fill="#EEEEEE"/>
<path d="M331.333 166L165.667 166C165.667 74.644 239.885 0.5 331.333 0.5L331.333 166Z" fill="white"/>
<path d="M497 0.5L331.333 0.5L331.333 166L497 166L497 0.5Z" fill="#242629"/>
<path d="M414.167 166C368.443 166 331.333 128.928 331.333 83.25C331.333 37.572 368.443 0.5 414.167 0.5C459.891 0.5 497 37.572 497 83.25C497 128.928 459.891 166 414.167 166Z" fill="#EEEEEE"/>
<path d="M414.167 121.911C392.829 121.911 375.467 104.566 375.467 83.2498C375.467 61.9334 392.829 44.589 414.167 44.589C435.505 44.589 452.867 61.9334 452.867 83.2498C452.867 104.566 435.505 121.911 414.167 121.911Z" fill="#242629"/>
<path d="M994 -165L828.333 -165L828.333 0.5L994 0.5L994 -165Z" fill="white"/>
<path d="M911.167 0.5C865.443 0.5 828.333 -36.572 828.333 -82.25C828.333 -127.928 865.443 -165 911.167 -165C956.891 -165 994 -127.928 994 -82.25C994 -36.572 956.891 0.5 911.167 0.5Z" fill="white"/>
<path d="M828.333 -165L662.667 -165L662.667 0.499985L828.333 0.499985L828.333 -165Z" fill="white"/>
<path d="M828.333 -82.25L828.333 0.499985L662.667 0.499985L662.667 -82.25C662.667 -127.928 699.776 -165 745.5 -165C768.428 -165 789.104 -155.732 804.08 -140.771C819.056 -125.81 828.333 -105.155 828.333 -82.25Z" fill="#7AE0F7"/>
<path d="M165.667 166L6.10352e-05 166L6.10352e-05 331.5L165.667 331.5L165.667 166Z" fill="#7AE0F7"/>
<path d="M165.667 166C119.943 166 82.8334 203.072 82.8334 248.75L82.8334 331.5L165.667 331.5L165.667 166Z" fill="#242629"/>
<path d="M497 -165L331.333 -165L331.333 0.499954L497 0.499954L497 -165Z" fill="white"/>
<path d="M662.667 -165L497 -165L497 0.499969L662.667 0.499969L662.667 -165Z" fill="white"/>
<path d="M497 0.499969L662.667 -165L662.667 0.499969L497 0.499969Z" fill="white"/>
<path d="M497 0.499954L331.333 -165L331.333 0.499954L497 0.499954Z" fill="#242629"/>
<path d="M331.333 -165L165.667 -165L165.667 0.499969L331.333 0.499969L331.333 -165Z" fill="#EEEEEE"/>
<path d="M165.667 0.499969L331.333 -165L165.667 -165L165.667 0.499969Z" fill="#7AE0F7"/>
<path d="M828.333 166L662.667 166L662.667 331.5L828.333 331.5L828.333 166Z" fill="white"/>
<path d="M828.333 331.5L662.667 331.5L662.667 497L828.333 497L828.333 331.5Z" fill="white"/>
<path d="M994 166L828.333 166L828.333 331.5L994 331.5L994 166Z" fill="white"/>
<path d="M994 331.5L828.333 331.5L828.333 497L994 497L994 331.5Z" fill="white"/>
<path d="M994 331.5L828.333 331.5L828.333 497L994 497L994 331.5Z" fill="white"/>
<path d="M828.333 331.5L662.667 331.5L662.667 497L828.333 497L828.333 331.5Z" fill="#EEEEEE"/>
<path d="M828.333 166L662.667 166L662.667 331.5C662.667 422.856 736.885 497 828.333 497C919.781 497 994 422.856 994 331.5L994 166L828.333 166Z" fill="white"/>
<path d="M721.246 307.271C736.223 292.31 745.5 271.655 745.5 248.75C745.5 203.072 708.391 166 662.667 166L662.667 210.089C684.005 210.089 701.366 227.434 701.366 248.75C701.366 259.342 696.993 269.007 690.101 276.024C683.077 283.042 673.402 287.278 662.799 287.278V331.5C685.595 331.5 706.27 322.232 721.246 307.271Z" fill="white"/>
<path d="M828.333 497C919.781 497 994 422.856 994 331.5L994 166L828.333 166L828.333 497Z" fill="#242629"/>
<path d="M994 166L828.333 166L828.333 331.5L994 166Z" fill="#EEEEEE"/>
<path d="M828.333 331.5L662.667 497L828.333 497L828.333 331.5Z" fill="#7AE0F7"/>
<path d="M828.333 497C919.781 497 994 422.856 994 331.5L828.333 497Z" fill="white"/>
<path d="M828.333 0.499756L662.667 0.499756L662.667 166L828.333 166L828.333 0.499756Z" fill="white"/>
<path d="M994 0.5L828.333 0.5L828.333 166L994 166L994 0.5Z" fill="white"/>
<path d="M828.333 0.499756L662.667 0.499756C662.667 91.8557 736.885 166 828.333 166C919.781 166 994 91.8557 994 0.499756L828.333 0.499756Z" fill="#242629"/>
<path d="M828.333 0.234985C805.405 0.234985 786.85 18.771 786.85 41.5438L786.85 124.294C786.85 147.199 805.405 165.603 828.333 165.603C851.261 165.603 869.816 147.067 869.816 124.294L869.816 41.5438C869.816 18.771 851.261 0.234985 828.333 0.234985Z" fill="white"/>
<path d="M869.816 124.294L869.816 41.5438C869.816 18.6386 851.262 0.234985 828.333 0.234985L828.333 165.735C851.262 165.735 869.816 147.199 869.816 124.294Z" fill="#EEEEEE"/>
<path d="M331.333 166L165.667 166L165.667 331.5L331.333 331.5L331.333 166Z" fill="white"/>
<path d="M497 166L331.333 166L331.333 331.5L497 331.5L497 166Z" fill="white"/>
<path d="M497 331.5L331.333 331.5L331.333 497L497 497L497 331.5Z" fill="white"/>
<path d="M662.667 166L497 166L497 331.5L662.667 331.5L662.667 166Z" fill="white"/>
<path d="M662.667 331.5L497 331.5L497 497L662.667 497L662.667 331.5Z" fill="white"/>
<path d="M497 166L331.333 331.5L331.333 497L497 497L662.667 331.5L662.667 166L497 166Z" fill="#EEEEEE"/>
<path d="M497 331.5L331.333 331.5L331.333 497L497 497L497 331.5Z" fill="#EEEEEE"/>
<path d="M331.333 331.5L165.667 166L165.667 0.5L497 331.5L331.333 331.5Z" fill="white"/>
<path d="M497 331.5L662.667 166L662.667 331.5L497 497L497 331.5Z" fill="#7AE0F7"/>
<path d="M472.746 438.479C457.77 423.518 437.095 414.25 414.167 414.25C368.443 414.25 331.333 451.322 331.333 497L375.467 497C375.467 475.683 392.829 458.339 414.167 458.339C424.769 458.339 434.444 462.708 441.469 469.593C448.493 476.61 452.734 486.275 452.734 496.867L497 496.867C497 474.095 487.723 453.44 472.746 438.479Z" fill="white"/>
<path d="M165.799 165.867C165.799 257.223 240.018 331.367 331.466 331.367C331.466 240.011 257.247 165.867 165.799 165.867Z" fill="#7AE0F7"/>
<path d="M248.072 283.394C266.644 282.531 280.998 266.791 280.135 248.239C279.271 229.686 263.516 215.346 244.944 216.209C226.373 217.071 212.018 232.811 212.882 251.363C213.746 269.916 229.501 284.257 248.072 283.394Z" fill="#242629"/>
<path d="M662.402 165.867C570.954 165.867 496.735 240.011 496.735 331.367C588.183 331.367 662.402 257.223 662.402 165.867Z" fill="#242629"/>
<path d="M578.375 280.128C596.967 280.128 612.039 265.072 612.039 246.499C612.039 227.926 596.967 212.869 578.375 212.869C559.784 212.869 544.712 227.926 544.712 246.499C544.712 265.072 559.784 280.128 578.375 280.128Z" fill="white"/>
<path d="M331.333 331.5L165.667 331.5L165.667 497L331.333 497L331.333 331.5Z" fill="white"/>
<path d="M331.333 331.5L165.667 331.5L165.667 497L331.333 331.5Z" fill="white"/>
<path d="M331.333 497L165.667 497C165.667 405.644 239.885 331.5 331.333 331.5L331.333 497Z" fill="#242629"/>
<path d="M331.333 331.5L414.167 414.25L497 331.5L331.333 331.5Z" fill="#242629"/>
<path d="M165.667 0.5L6.10352e-05 0.5L6.10352e-05 166L165.667 166L165.667 0.5Z" fill="#EEEEEE"/>
<path d="M165.667 0.5L6.10352e-05 166L165.667 166L165.667 0.5Z" fill="white"/>
<path d="M165.667 331.5L6.10352e-05 331.5L6.10352e-05 497L165.667 497L165.667 331.5Z" fill="white"/>
<path d="M165.667 331.5L6.10352e-05 497L6.10352e-05 331.5L165.667 331.5Z" fill="white"/>
<path d="M82.8333 457.809C58.8448 457.809 39.2299 438.346 39.2299 414.25C39.2299 390.285 58.7123 370.69 82.8333 370.69C106.822 370.69 126.437 390.153 126.437 414.25C126.437 438.214 106.822 457.809 82.8333 457.809Z" fill="#7AE0F7"/>
</g>
<g clip-path="url(#clip1)">
<path d="M994 497L0 497L0 1159L994 1159L994 497Z" fill="white"/>
<path d="M165.667 497L0 497L0 662.5L165.667 662.5L165.667 497Z" fill="white"/>
<path d="M165.667 662.5L0 662.5C0 571.144 74.2187 497 165.667 497L165.667 662.5Z" fill="white"/>
<path d="M165.667 662.5L48.1096 662.5C48.1096 597.624 100.725 545.061 165.667 545.061L165.667 662.5Z" fill="white"/>
<path d="M165.667 662.5L116.099 662.5C116.099 635.093 138.232 612.982 165.667 612.982L165.667 662.5Z" fill="#242629"/>
<path d="M662.667 662.5L497 662.5L497 828L662.667 828L662.667 662.5Z" fill="white"/>
<path d="M622.509 714.533L540.338 714.533V739.159L622.509 739.159V714.533Z" fill="#7AE0F7"/>
<path d="M622.509 756.636L540.338 756.636V781.263L622.509 781.263V756.636Z" fill="#7AE0F7"/>
<path d="M331.333 662.5L165.667 662.5L165.667 828L331.333 828L331.333 662.5Z" fill="#EEEEEE"/>
<path d="M331.333 828L165.667 828C165.667 736.644 239.885 662.5 331.333 662.5L331.333 828Z" fill="white"/>
<path d="M497 662.5L331.333 662.5L331.333 828L497 828L497 662.5Z" fill="#242629"/>
<path d="M414.167 828C368.443 828 331.333 790.928 331.333 745.25C331.333 699.572 368.443 662.5 414.167 662.5C459.891 662.5 497 699.572 497 745.25C497 790.928 459.891 828 414.167 828Z" fill="#EEEEEE"/>
<path d="M414.167 783.911C392.829 783.911 375.467 766.566 375.467 745.25C375.467 723.933 392.829 706.589 414.167 706.589C435.505 706.589 452.866 723.933 452.866 745.25C452.866 766.566 435.505 783.911 414.167 783.911Z" fill="#242629"/>
<path d="M994 497L828.333 497L828.333 662.5L994 662.5L994 497Z" fill="white"/>
<path d="M911.167 662.5C865.443 662.5 828.333 625.428 828.333 579.75C828.333 534.072 865.443 497 911.167 497C956.891 497 994 534.072 994 579.75C994 625.428 956.891 662.5 911.167 662.5Z" fill="white"/>
<path d="M911.167 609.804C894.6 609.804 881.082 596.3 881.082 579.75C881.082 563.2 894.6 549.695 911.167 549.695C927.733 549.695 941.252 563.2 941.252 579.75C941.252 596.3 927.733 609.804 911.167 609.804Z" fill="white"/>
<path d="M828.333 497L662.667 497L662.667 662.5L828.333 662.5L828.333 497Z" fill="white"/>
<path d="M828.333 579.75L828.333 662.5L662.667 662.5L662.667 579.75C662.667 534.072 699.776 497 745.5 497C768.428 497 789.103 506.268 804.08 521.229C819.056 536.19 828.333 556.845 828.333 579.75Z" fill="#7AE0F7"/>
<path d="M828.333 579.75L662.667 579.75C662.667 534.072 699.776 497 745.5 497C768.428 497 789.103 506.268 804.08 521.229C819.056 536.19 828.333 556.845 828.333 579.75Z" fill="#EEEEEE"/>
<path d="M165.667 828L0 828L0 993.5L165.667 993.5L165.667 828Z" fill="#7AE0F7"/>
<path d="M165.667 828C119.943 828 82.8334 865.072 82.8334 910.75L82.8334 993.5L165.667 993.5L165.667 828Z" fill="#242629"/>
<path d="M497 497L331.333 497L331.333 662.5L497 662.5L497 497Z" fill="white"/>
<path d="M662.667 497L497 497L497 662.5L662.667 662.5L662.667 497Z" fill="white"/>
<path d="M497 662.5L662.667 497L662.667 662.5L497 662.5Z" fill="white"/>
<path d="M497 662.5L331.333 497L331.333 662.5L497 662.5Z" fill="#242629"/>
<path d="M384.877 497L497 609.01L609.123 497L384.877 497Z" fill="#EEEEEE"/>
<path d="M550.411 497L443.589 497L497 550.357L550.411 497Z" fill="#242629"/>
<path d="M331.333 497L165.667 497L165.667 662.5L331.333 662.5L331.333 497Z" fill="#EEEEEE"/>
<path d="M165.667 662.5L331.333 497L165.667 497L165.667 662.5Z" fill="#7AE0F7"/>
<path d="M828.333 828L662.667 828L662.667 993.5L828.333 993.5L828.333 828Z" fill="white"/>
<path d="M994 828L828.333 828L828.333 993.5L994 993.5L994 828Z" fill="white"/>
<path d="M828.333 828L662.667 828L662.667 993.5C662.667 1084.86 736.885 1159 828.333 1159C919.781 1159 994 1084.86 994 993.5L994 828L828.333 828Z" fill="white"/>
<path d="M721.246 969.271C736.223 954.31 745.5 933.655 745.5 910.75C745.5 865.072 708.391 828 662.667 828L662.667 872.089C684.005 872.089 701.366 889.434 701.366 910.75C701.366 921.342 696.993 931.007 690.101 938.024C683.077 945.042 673.402 949.278 662.799 949.278V993.5C685.595 993.5 706.27 984.232 721.246 969.271Z" fill="white"/>
<path d="M828.333 1159C919.781 1159 994 1084.86 994 993.5L994 828L828.333 828L828.333 1159Z" fill="#242629"/>
<path d="M994 828L828.333 828L828.333 993.5L994 828Z" fill="#EEEEEE"/>
<path d="M828.333 662.5L662.667 662.5L662.667 828L828.333 828L828.333 662.5Z" fill="white"/>
<path d="M994 662.5L828.333 662.5L828.333 828L994 828L994 662.5Z" fill="white"/>
<path d="M828.333 662.5L662.667 662.5C662.667 753.856 736.885 828 828.333 828C919.781 828 994 753.856 994 662.5L828.333 662.5Z" fill="#242629"/>
<path d="M828.333 662.235C805.405 662.235 786.85 680.771 786.85 703.544L786.85 786.294C786.85 809.199 805.405 827.603 828.333 827.603C851.261 827.603 869.816 809.067 869.816 786.294L869.816 703.544C869.816 680.771 851.261 662.235 828.333 662.235Z" fill="white"/>
<path d="M869.816 786.294L869.816 703.544C869.816 680.639 851.262 662.235 828.333 662.235L828.333 827.735C851.262 827.735 869.816 809.199 869.816 786.294Z" fill="#EEEEEE"/>
<path d="M331.333 828L165.667 828L165.667 993.5L331.333 993.5L331.333 828Z" fill="white"/>
<path d="M497 828L331.333 828L331.333 993.5L497 993.5L497 828Z" fill="white"/>
<path d="M662.667 828L497 828L497 993.5L662.667 993.5L662.667 828Z" fill="white"/>
<path d="M497 828L331.333 993.5L331.333 1159L497 1159L662.667 993.5L662.667 828L497 828Z" fill="#EEEEEE"/>
<path d="M331.333 993.5L165.667 828L165.667 662.5L497 993.5L331.333 993.5Z" fill="white"/>
<path d="M497 993.5L662.667 828L662.667 993.5L497 1159L497 993.5Z" fill="#7AE0F7"/>
<path d="M165.799 827.867C165.799 919.223 240.018 993.367 331.466 993.367C331.466 902.011 257.247 827.867 165.799 827.867Z" fill="#7AE0F7"/>
<path d="M248.072 945.394C266.644 944.531 280.998 928.792 280.135 910.239C279.271 891.686 263.516 877.346 244.944 878.209C226.373 879.072 212.018 894.811 212.882 913.364C213.746 931.916 229.501 946.257 248.072 945.394Z" fill="#242629"/>
<path d="M662.401 827.867C570.953 827.867 496.735 902.011 496.735 993.367C588.183 993.367 662.401 919.223 662.401 827.867Z" fill="#242629"/>
<path d="M578.375 942.128C596.967 942.128 612.039 927.072 612.039 908.499C612.039 889.926 596.967 874.869 578.375 874.869C559.783 874.869 544.712 889.926 544.712 908.499C544.712 927.072 559.783 942.128 578.375 942.128Z" fill="white"/>
<path d="M165.667 662.5L0 662.5L0 828L165.667 828L165.667 662.5Z" fill="#EEEEEE"/>
<path d="M165.667 662.5L0 828L165.667 828L165.667 662.5Z" fill="white"/>
</g>
<defs>
<clipPath id="clip0">
<rect width="994" height="498" fill="white"/>
</clipPath>
<clipPath id="clip1">
<rect width="994" height="444" fill="white" transform="translate(0 498)"/>
</clipPath>
</defs>
</svg>
