<svg width="19" height="19" viewBox="0 0 19 19" fill="none" xmlns="http://www.w3.org/2000/svg">
<path d="M12.875 16.625V15.0417C12.875 14.2018 12.5414 13.3964 11.9475 12.8025C11.3536 12.2086 10.5482 11.875 9.70833 11.875H4.16667C3.32681 11.875 2.52136 12.2086 1.9275 12.8025C1.33363 13.3964 1 14.2018 1 15.0417V16.625" stroke="white" stroke-linecap="round" stroke-linejoin="round"/>
<path d="M6.93717 8.70833C8.68608 8.70833 10.1038 7.29057 10.1038 5.54167C10.1038 3.79277 8.68608 2.375 6.93717 2.375C5.18827 2.375 3.77051 3.79277 3.77051 5.54167C3.77051 7.29057 5.18827 8.70833 6.93717 8.70833Z" stroke="white" stroke-linecap="round" stroke-linejoin="round"/>
<path d="M16.041 6.3335V11.0835" stroke="white" stroke-linecap="round" stroke-linejoin="round"/>
<path d="M18.416 8.7085H13.666" stroke="white" stroke-linecap="round" stroke-linejoin="round"/>
</svg>
